<svg xmlns="http://www.w3.org/2000/svg" width="563.5" height="252" viewBox="0 0 563.5 252">
  <g id="Group_43" data-name="Group 43" transform="translate(-160.841 -39)">
    <g id="soup-cup-and-soup" transform="translate(518.349 71.107)">
      <path id="Path_8" data-name="Path 8" d="M171.038,98.423a2.493,2.493,0,1,1,4.783,1.4,98.027,98.027,0,0,1-3.713,10.419,95.442,95.442,0,0,1-4.833,9.817,2.49,2.49,0,0,1-4.332-2.458,86.9,86.9,0,0,0,4.582-9.282,97.972,97.972,0,0,0,3.512-9.9ZM102.051,10.555a3.571,3.571,0,0,1,5.051,5.051c-5.335,5.352-3.01,9.717-.3,14.784,4.014,7.476,8.6,16.055.853,29.468a3.563,3.563,0,0,1-6.171-3.562c5.77-9.984,2.174-16.691-.97-22.544-4.03-7.593-7.526-14.115,1.539-23.2ZM134.6,1.039a3.571,3.571,0,0,1,5.051,5.051c-5.335,5.335-3.01,9.717-.3,14.784,4.014,7.476,8.6,16.055.853,29.468a3.563,3.563,0,1,1-6.171-3.562c5.77-9.984,2.174-16.691-.97-22.544-4.047-7.593-7.543-14.115,1.539-23.2Zm32.545,9.516a3.571,3.571,0,0,1,5.051,5.051c-5.352,5.352-3.01,9.717-.3,14.784,4.014,7.476,8.6,16.055.853,29.468a3.563,3.563,0,1,1-6.171-3.562c5.77-9.984,2.174-16.691-.97-22.544-4.047-7.593-7.543-14.115,1.539-23.2ZM3.7,37.7C-.216,32.8-.751,27.546.821,23.1a15.014,15.014,0,0,1,3.847-5.887,15.628,15.628,0,0,1,21.407-.251l.084.067L89.876,71.564H202.161a3.326,3.326,0,0,1,3.328,3.328c0,.134-.017.268-.017.4-.853,20.286-5.569,37.98-15.269,52.363-9.8,14.516-24.618,25.554-45.556,32.344-.05.017-.117.033-.167.05V170.1a1.413,1.413,0,0,1-1.4,1.4H80.829a1.827,1.827,0,0,1-1.823-1.823V159.95a3.534,3.534,0,0,1-.569-.268c-19.216-9.081-32.762-21.039-41.743-35.338C27.68,110,23.315,93.355,22.529,75.009a3.325,3.325,0,0,1,3.178-3.462h.151V71.53h17.41L4.182,38.2a3.441,3.441,0,0,1-.485-.5ZM7.076,25.305c-.836,2.375-.5,5.251,1.656,8.061L52.95,71.112H79.156L21.86,22.077l-.067-.05a9.325,9.325,0,0,0-9.064-2.107,9.082,9.082,0,0,0-3.5,2.091,8.687,8.687,0,0,0-2.157,3.295Zm35.238,95.528c8.262,13.145,20.771,24.2,38.532,32.679h62.3c19.149-6.3,32.662-16.39,41.559-29.568,8.479-12.56,12.861-27.611,13.981-45.339H29.352c1.121,15.854,5.168,29.819,12.961,42.228Zm116.031,3.88a2.491,2.491,0,0,1,4.03,2.927c-1.037,1.438-2.124,2.826-3.244,4.164-1.087,1.3-2.241,2.576-3.445,3.8a2.484,2.484,0,0,1-3.546-3.479c1.07-1.087,2.124-2.258,3.178-3.5,1.037-1.254,2.057-2.559,3.027-3.913Z" transform="translate(0.002 0.002)" fill="#23591e" stroke="#23591e" stroke-width="1"/>
    </g>
    <g id="Group_42" data-name="Group 42" transform="translate(160.841 39)">
      <text id="Eight" transform="translate(189 90)" fill="#23591e" font-size="90" font-family="AvenirNext-Bold, Avenir Next" font-weight="700"><tspan x="-114.75" y="0">Eight</tspan></text>
      <text id="Soups" transform="translate(161 205)" fill="#fff" font-size="138" font-family="Noteworthy-Light, Noteworthy" font-weight="300"><tspan x="-160.597" y="0">Soups</tspan></text>
    </g>
  </g>
</svg>
