<svg xmlns="http://www.w3.org/2000/svg" width="168.568" height="141.021" viewBox="0 0 168.568 141.021">
  <g id="soup-cup-and-soup" transform="translate(0.549 0.704)">
    <path id="Path_8" data-name="Path 8" d="M139.432,80.235a2.032,2.032,0,1,1,3.9,1.145,79.913,79.913,0,0,1-3.027,8.494,77.81,77.81,0,0,1-3.94,8,2.03,2.03,0,0,1-3.531-2,70.842,70.842,0,0,0,3.736-7.567,79.87,79.87,0,0,0,2.863-8.071ZM83.193,8.6a2.911,2.911,0,1,1,4.117,4.117c-4.349,4.363-2.454,7.921-.245,12.052,3.272,6.094,7.008,13.088.7,24.022a2.9,2.9,0,0,1-5.031-2.9c4.7-8.139,1.772-13.606-.791-18.378C78.653,21.324,75.8,16.007,83.193,8.6ZM109.724.846a2.911,2.911,0,1,1,4.117,4.117c-4.349,4.349-2.454,7.921-.245,12.052,3.272,6.094,7.008,13.088.7,24.022a2.9,2.9,0,0,1-5.031-2.9c4.7-8.139,1.772-13.606-.791-18.378-3.3-6.19-6.149-11.507,1.254-18.91ZM136.255,8.6a2.911,2.911,0,0,1,4.117,4.117c-4.363,4.363-2.454,7.921-.245,12.052,3.272,6.094,7.008,13.088.7,24.022a2.9,2.9,0,1,1-5.031-2.9c4.7-8.139,1.772-13.606-.791-18.378-3.3-6.19-6.149-11.507,1.254-18.91ZM3.014,30.731c-3.19-3.995-3.627-8.276-2.345-11.9A12.24,12.24,0,0,1,3.8,14.03a12.74,12.74,0,0,1,17.451-.2l.068.055L73.268,58.339H164.8a2.711,2.711,0,0,1,2.713,2.713c0,.109-.014.218-.014.327-.7,16.538-4.54,30.962-12.448,42.687-7.989,11.834-20.069,20.832-37.138,26.367-.041.014-.1.027-.136.041v8.194a1.152,1.152,0,0,1-1.145,1.145H65.892a1.49,1.49,0,0,1-1.486-1.486v-7.935a2.879,2.879,0,0,1-.464-.218c-15.665-7.4-26.708-17.151-34.03-28.808C22.564,89.669,19.006,76.1,18.365,61.148a2.71,2.71,0,0,1,2.59-2.822h.123v-.014H35.271L3.409,31.14a2.805,2.805,0,0,1-.4-.409Zm2.754-10.1A6.854,6.854,0,0,0,7.117,27.2L43.165,57.971H64.529L17.82,18l-.055-.041a7.6,7.6,0,0,0-7.389-1.718,7.4,7.4,0,0,0-2.849,1.7,7.081,7.081,0,0,0-1.759,2.686ZM34.494,98.5c6.735,10.716,16.933,19.728,31.412,26.64h50.785c15.61-5.14,26.626-13.361,33.88-24.1,6.912-10.239,10.484-22.509,11.4-36.961H23.928C24.841,77,28.141,88.388,34.494,98.5Zm94.59,3.163a2.03,2.03,0,1,1,3.286,2.386c-.845,1.172-1.731,2.3-2.645,3.395-.886,1.063-1.827,2.1-2.809,3.095a2.025,2.025,0,1,1-2.89-2.836c.873-.886,1.731-1.841,2.59-2.849s1.677-2.086,2.468-3.19Z" transform="translate(0.002 0.002)" fill="#91dbb7" stroke="#91dbb7" stroke-width="1"/>
  </g>
</svg>
